<svg width="12" height="14" viewBox="0 0 12 14" fill="none" xmlns="http://www.w3.org/2000/svg">
<path d="M2.66667 6H4V7.33333H2.66667V6ZM12 2.66667V12C12 12.7333 11.4 13.3333 10.6667 13.3333H1.33333C0.593333 13.3333 0 12.7333 0 12L0.00666666 2.66667C0.00666666 1.93333 0.593333 1.33333 1.33333 1.33333H2V0H3.33333V1.33333H8.66667V0H10V1.33333H10.6667C11.4 1.33333 12 1.93333 12 2.66667ZM1.33333 4H10.6667V2.66667H1.33333V4ZM10.6667 12V5.33333H1.33333V12H10.6667ZM8 7.33333H9.33333V6H8V7.33333ZM5.33333 7.33333H6.66667V6H5.33333V7.33333Z" fill="white"/>
</svg>
