<svg width="14" height="14" viewBox="0 0 14 14" fill="none" xmlns="http://www.w3.org/2000/svg">
<path d="M13.8614 2.70297L10.6733 0L9.77227 1.0396L12.9604 3.74257L13.8614 2.70297ZM4.08911 1.10891L3.18812 0.0693069L0 2.70297L0.90099 3.74257L4.08911 1.10891ZM7.27722 4.29703H6.23762V8.45544L9.49504 10.4653L10.0495 9.63366L7.27722 7.97029V4.29703ZM6.93069 1.52475C3.46534 1.52475 0.693069 4.29703 0.693069 7.76237C0.693069 11.2277 3.46534 14 6.93069 14C10.396 14 13.1683 11.2277 13.1683 7.76237C13.1683 4.29703 10.396 1.52475 6.93069 1.52475ZM6.93069 12.6139C4.22772 12.6139 2.07921 10.4653 2.07921 7.76237C2.07921 5.0594 4.22772 2.91089 6.93069 2.91089C9.63366 2.91089 11.7822 5.0594 11.7822 7.76237C11.7822 10.4653 9.63366 12.6139 6.93069 12.6139Z" fill="white"/>
</svg>
