<svg width="14" height="14" viewBox="0 0 14 14" fill="none" xmlns="http://www.w3.org/2000/svg">
<path d="M11.62 12.215H13.3V13.615H9.09997V9.41497H10.5V11.326C11.781 10.297 12.6 8.72897 12.6 6.96498C12.6 4.11599 10.458 1.75699 7.69998 1.414V0C11.235 0.349999 14 3.33199 14 6.96498C14 9.05797 13.076 10.934 11.62 12.215ZM1.4 6.96498C1.4 5.20098 2.21899 3.62599 3.49999 2.60399V4.51499H4.89999V0.314999H0.699998V1.71499H2.37999C0.923997 2.99599 0 4.87198 0 6.96498C0 10.598 2.76499 13.58 6.29998 13.93V12.516C3.54199 12.173 1.4 9.81397 1.4 6.96498ZM9.96797 4.24199L6.00598 8.20397L4.02499 6.22298L3.03799 7.20998L6.00598 10.178L10.955 5.22898L9.96797 4.24199Z" fill="#828282"/>
</svg>
