<svg width="24" height="24" viewBox="0 0 24 24" fill="none" xmlns="http://www.w3.org/2000/svg">
<path d="M18.6923 15C18.5643 15.3016 18.5261 15.6362 18.5827 15.9606C18.6392 16.285 18.7879 16.5843 19.0096 16.82L19.0673 16.88C19.2461 17.0657 19.388 17.2863 19.4847 17.5291C19.5815 17.7719 19.6313 18.0322 19.6313 18.295C19.6313 18.5578 19.5815 18.8181 19.4847 19.0609C19.388 19.3037 19.2461 19.5243 19.0673 19.71C18.8887 19.896 18.6766 20.0435 18.4432 20.1441C18.2097 20.2448 17.9595 20.2966 17.7067 20.2966C17.454 20.2966 17.2038 20.2448 16.9703 20.1441C16.7368 20.0435 16.5248 19.896 16.3462 19.71L16.2885 19.65C16.0618 19.4195 15.774 19.2648 15.4621 19.206C15.1502 19.1472 14.8285 19.1869 14.5385 19.32C14.2541 19.4468 14.0115 19.6572 13.8407 19.9255C13.6698 20.1938 13.5782 20.5082 13.5769 20.83V21C13.5769 21.5304 13.3743 22.0391 13.0137 22.4142C12.653 22.7893 12.1639 23 11.6538 23C11.1438 23 10.6547 22.7893 10.294 22.4142C9.93338 22.0391 9.73077 21.5304 9.73077 21V20.91C9.72332 20.579 9.62031 20.258 9.43511 19.9887C9.24991 19.7194 8.99109 19.5143 8.69231 19.4C8.40229 19.2669 8.08058 19.2272 7.76867 19.286C7.45675 19.3448 7.16892 19.4995 6.94231 19.73L6.88462 19.79C6.70601 19.976 6.49392 20.1235 6.26046 20.2241C6.027 20.3248 5.77676 20.3766 5.52404 20.3766C5.27132 20.3766 5.02107 20.3248 4.78761 20.2241C4.55416 20.1235 4.34206 19.976 4.16346 19.79C3.98466 19.6043 3.84282 19.3837 3.74604 19.1409C3.64926 18.8981 3.59945 18.6378 3.59945 18.375C3.59945 18.1122 3.64926 17.8519 3.74604 17.6091C3.84282 17.3663 3.98466 17.1457 4.16346 16.96L4.22115 16.9C4.44282 16.6643 4.59152 16.365 4.64808 16.0406C4.70464 15.7162 4.66646 15.3816 4.53846 15.08C4.41657 14.7842 4.21419 14.532 3.95622 14.3543C3.69825 14.1766 3.39595 14.0813 3.08654 14.08H2.92308C2.41305 14.08 1.9239 13.8693 1.56326 13.4942C1.20261 13.1191 1 12.6104 1 12.08C1 11.5496 1.20261 11.0409 1.56326 10.6658C1.9239 10.2907 2.41305 10.08 2.92308 10.08H3.00962C3.32788 10.0723 3.63654 9.96512 3.89548 9.77251C4.15442 9.5799 4.35165 9.31074 4.46154 9C4.58953 8.69838 4.62771 8.36381 4.57116 8.03941C4.5146 7.71502 4.3659 7.41568 4.14423 7.18L4.08654 7.12C3.90774 6.93425 3.76589 6.71368 3.66912 6.47088C3.57234 6.22808 3.52253 5.96783 3.52253 5.705C3.52253 5.44217 3.57234 5.18192 3.66912 4.93912C3.76589 4.69632 3.90774 4.47575 4.08654 4.29C4.26514 4.10405 4.47723 3.95653 4.71069 3.85588C4.94415 3.75523 5.19439 3.70343 5.44712 3.70343C5.69984 3.70343 5.95008 3.75523 6.18354 3.85588C6.417 3.95653 6.62909 4.10405 6.80769 4.29L6.86538 4.35C7.092 4.58054 7.37982 4.73519 7.69174 4.794C8.00366 4.85282 8.32537 4.81312 8.61538 4.68H8.69231C8.9767 4.55324 9.21925 4.34276 9.39009 4.07447C9.56093 3.80618 9.65261 3.49179 9.65385 3.17V3C9.65385 2.46957 9.85646 1.96086 10.2171 1.58579C10.5777 1.21071 11.0669 1 11.5769 1C12.087 1 12.5761 1.21071 12.9367 1.58579C13.2974 1.96086 13.5 2.46957 13.5 3V3.09C13.5012 3.41179 13.5929 3.72618 13.7638 3.99447C13.9346 4.26276 14.1771 4.47324 14.4615 4.6C14.7516 4.73312 15.0733 4.77282 15.3852 4.714C15.6971 4.65519 15.9849 4.50054 16.2115 4.27L16.2692 4.21C16.4478 4.02405 16.6599 3.87653 16.8934 3.77588C17.1268 3.67523 17.3771 3.62343 17.6298 3.62343C17.8825 3.62343 18.1328 3.67523 18.3662 3.77588C18.5997 3.87653 18.8118 4.02405 18.9904 4.21C19.1692 4.39575 19.311 4.61632 19.4078 4.85912C19.5046 5.10192 19.5544 5.36217 19.5544 5.625C19.5544 5.88783 19.5046 6.14808 19.4078 6.39088C19.311 6.63368 19.1692 6.85425 18.9904 7.04L18.9327 7.1C18.711 7.33568 18.5623 7.63502 18.5058 7.95941C18.4492 8.28381 18.4874 8.61838 18.6154 8.92V9C18.7373 9.29577 18.9397 9.54802 19.1976 9.72569C19.4556 9.90337 19.7579 9.99872 20.0673 10H20.2308C20.7408 10 21.2299 10.2107 21.5906 10.5858C21.9512 10.9609 22.1538 11.4696 22.1538 12C22.1538 12.5304 21.9512 13.0391 21.5906 13.4142C21.2299 13.7893 20.7408 14 20.2308 14H20.1442C19.8348 14.0013 19.5325 14.0966 19.2746 14.2743C19.0166 14.452 18.8142 14.7042 18.6923 15Z" stroke="black" stroke-width="2" stroke-linecap="round" stroke-linejoin="round"/>
</svg>
