<svg width="23" height="21" viewBox="0 0 23 21" fill="none" xmlns="http://www.w3.org/2000/svg">
<path d="M20.3772 2.62288C19.8642 2.10972 19.2552 1.70265 18.585 1.42491C17.9147 1.14718 17.1962 1.00423 16.4707 1.00423C15.7452 1.00423 15.0267 1.14718 14.3564 1.42491C13.6862 1.70265 13.0772 2.10972 12.5642 2.62288L11.4998 3.68736L10.4353 2.62288C9.39921 1.58682 7.99401 1.00477 6.5288 1.00477C5.0636 1.00477 3.6584 1.58682 2.62234 2.62288C1.58628 3.65894 1.00423 5.06413 1.00423 6.52934C1.00423 7.99455 1.58628 9.39974 2.62234 10.4358L3.68683 11.5003L11.4998 19.3132L19.3127 11.5003L20.3772 10.4358C20.8903 9.92289 21.2974 9.31389 21.5751 8.64361C21.8529 7.97332 21.9958 7.25489 21.9958 6.52934C21.9958 5.8038 21.8529 5.08536 21.5751 4.41508C21.2974 3.74479 20.8903 3.1358 20.3772 2.62288Z" stroke="black" stroke-width="2" stroke-linecap="round" stroke-linejoin="round"/>
</svg>
