<svg width="32" height="16" viewBox="0 0 32 16" fill="none" xmlns="http://www.w3.org/2000/svg">
<path d="M0 0C-3.00588e-07 2.1012 0.413852 4.18176 1.21792 6.12299C2.022 8.06421 3.20055 9.82803 4.68629 11.3138C6.17202 12.7994 7.93585 13.978 9.87705 14.7821C11.8182 15.5862 13.8988 16 16 16C18.1011 16 20.1817 15.5862 22.1229 14.7821C24.0641 13.978 25.8279 12.7994 27.3137 11.3138C28.7994 9.82803 29.9779 8.06421 30.782 6.12299C31.5861 4.18176 32 2.1012 32 0H26.9999C25.3431 0 24.0509 1.38849 23.444 2.93014C23.4268 2.97408 23.4091 3.01781 23.391 3.06154C22.989 4.0321 22.3997 4.91407 21.6568 5.65689C20.914 6.39971 20.032 6.98906 19.0614 7.39111C18.0909 7.79315 17.0506 8.00005 16 8.00005C14.9494 8.00005 13.9091 7.79315 12.9386 7.39111C11.9679 6.98906 11.086 6.39971 10.3431 5.65689C9.60026 4.91407 9.01099 4.0321 8.60896 3.06154C8.20691 2.09088 7.99999 1.0506 7.99999 0H0Z" fill="url(#paint0_linear_1_7167)"/>
<defs>
<linearGradient id="paint0_linear_1_7167" x1="1.04907e-06" y1="8.00005" x2="32" y2="8.00005" gradientUnits="userSpaceOnUse">
<stop stop-color="#F8BCC6"/>
<stop offset="1" stop-color="#F83758"/>
</linearGradient>
</defs>
</svg>
