<svg width="32" height="16" viewBox="0 0 32 16" fill="none" xmlns="http://www.w3.org/2000/svg">
<path d="M32 16C32 11.7566 30.3142 7.68687 27.3137 4.68629C24.3131 1.68571 20.2434 5.56463e-07 16 0C11.7565 -5.56462e-07 7.6869 1.68571 4.68631 4.68629C1.68571 7.68687 0 11.7566 0 16H5.00006C6.65693 16 7.94908 14.6115 8.55596 13.0698C8.9544 12.0575 9.55901 11.1273 10.3431 10.3431C11.8434 8.84284 13.8783 7.99999 16 7.99999C18.1217 7.99999 20.1566 8.84284 21.6569 10.3431C23.1572 11.8434 23.9999 13.8783 23.9999 16H32Z" fill="url(#paint0_linear_1_7165)"/>
<defs>
<linearGradient id="paint0_linear_1_7165" x1="32" y1="7.99999" x2="0" y2="7.99999" gradientUnits="userSpaceOnUse">
<stop stop-color="#CFE2FC"/>
<stop offset="1" stop-color="#4392F9"/>
</linearGradient>
</defs>
</svg>
